<svg xmlns="http://www.w3.org/2000/svg" width="5906" height="5906" viewBox="0 0 5906 5906">
  <metadata><?xpacket begin="﻿" id="W5M0MpCehiHzreSzNTczkc9d"?>
<x:xmpmeta xmlns:x="adobe:ns:meta/" x:xmptk="Adobe XMP Core 5.6-c138 79.159824, 2016/09/14-01:09:01        ">
   <rdf:RDF xmlns:rdf="http://www.w3.org/1999/02/22-rdf-syntax-ns#">
      <rdf:Description rdf:about=""/>
   </rdf:RDF>
</x:xmpmeta>
                                                                                                    
                                                                                                    
                                                                                                    
                                                                                                    
                                                                                                    
                                                                                                    
                                                                                                    
                                                                                                    
                                                                                                    
                                                                                                    
                                                                                                    
                                                                                                    
                                                                                                    
                                                                                                    
                                                                                                    
                                                                                                    
                                                                                                    
                                                                                                    
                                                                                                    
                                                                                                    
                           
<?xpacket end="w"?></metadata>
<defs>
    <style>
      .cls-1 {
        fill: #ffc929;
      }

      .cls-2 {
        fill: #fff;
        fill-rule: evenodd;
      }
    </style>
  </defs>
  <rect id="Retângulo_Arredondado_1" data-name="Retângulo Arredondado 1" class="cls-1" x="11" y="12" width="5884" height="5883" rx="1000" ry="1000"/>
  <path id="O" class="cls-2" d="M1388.66,3933.88q129.795,307.68,440.84,515.81t769.8,208.11q528.12,0,946.59-261.83,418.455-261.81,662.38-747.42,243.915-485.58,243.92-1004.77,0-624.315-374.83-1002.53-374.835-378.18-983.5-378.18-454.29,0-810.09,184.62-355.815,184.62-589.66,502.38-233.865,317.76-347.97,749.65-87.285,322.275-87.28,613.16Q1258.86,3626.185,1388.66,3933.88Zm847-1645.91q309.93-460.965,804.48-460.98,322.245,0,530.36,220.42,208.1,220.425,208.11,607.56,0,346.875-164.48,712.74t-416.22,546.03q-251.775,180.135-524.77,180.14-335.67,0-541.55-228.25t-205.87-566.17Q1925.72,2748.96,2235.66,2287.97Z"/>
</svg>
